Coordinates
version=1
nRows=6
nColumns=46
inDegrees=yes

Units are S.I. units (second, meters, Newtons, ...)
Angles are in degrees.

endheader
time	pelvis_tilt	pelvis_list	pelvis_rotation	pelvis_tx	pelvis_ty	pelvis_tz	bb_angle	bb_tx	bb_ty	bb_tz	hip_flexion_r	hip_adduction_r	hip_rotation_r	knee_angle_r	knee_angle_r_beta	ankle_angle_r	subtalar_angle_r	mtp_angle_r	crank_angle_r	hip_flexion_l	hip_adduction_l	hip_rotation_l	knee_angle_l	knee_angle_l_beta	ankle_angle_l	subtalar_angle_l	mtp_angle_l	crank_angle_l	lumbar_extension	lumbar_bending	lumbar_rotation	arm_flex_r	arm_add_r	arm_rot_r	elbow_flex_r	pro_sup_r	wrist_flex_r	wrist_dev_r	arm_flex_l	arm_add_l	arm_rot_l	elbow_flex_l	pro_sup_l	wrist_flex_l	wrist_dev_l
      7.50000000	    -23.79640874	     -7.90451942	     -7.50004548	      0.41736038	      1.20464544	     -0.26020936	      0.00000000	      0.50000000	      0.00000000	      0.25000000	     64.44203596	      7.21127334	      2.75113360	     90.56968640	      1.58073923	     16.36919644	     -1.75568033	      0.00000000	      0.00000000	     19.36982859	    -12.41123438	     -6.11635340	     32.56283430	      0.56832867	    -14.99845563	     -7.51254579	      0.00000000	      0.00000000	    -64.01770408	      7.71962811	      7.45744371	     40.19556561	    -10.64525955	     19.58336881	     92.86597798	     51.99652469	      0.00000000	      0.00000000	     27.76944016	    -17.31782227	      5.81228608	     89.40580878	     55.05297454	      0.00000000	      0.00000000
      7.50500000	    -23.81472847	     -7.33412409	     -7.80221235	      0.41717856	      1.20626201	     -0.25991177	      0.00000000	      0.50000000	      0.00000000	      0.25000000	     63.34530519	      7.12393207	      3.12990746	     88.20880089	      1.53953400	     17.68634400	     -2.91900282	      0.00000000	      0.00000000	     20.55722269	    -11.87753090	     -5.45740540	     35.41781287	      0.61815745	    -15.37112834	     -8.47860632	      0.00000000	      0.00000000	    -64.30532476	      6.95366362	      8.44059328	     39.35671995	    -11.62316054	     18.25579162	     94.68673729	     52.11993289	      0.00000000	      0.00000000	     29.24375028	    -16.43899407	      7.16772978	     88.45649375	     55.10935723	      0.00000000	      0.00000000
      7.51000000	    -23.94054970	     -6.40298337	     -8.34681167	      0.41634188	      1.20750265	     -0.25960237	      0.00000000	      0.50000000	      0.00000000	      0.25000000	     62.43159254	      7.06844649	      3.98434055	     85.72935824	      1.49625957	     18.55264867	     -3.81043448	      0.00000000	      0.00000000	     21.89091331	    -10.99610341	     -5.02606443	     38.23933561	      0.66740231	    -15.86617840	     -9.39866745	      0.00000000	      0.00000000	    -64.38497364	      5.96389426	      8.17823946	     39.51707687	    -11.70526400	     18.08948163	     94.94023824	     52.13929861	      0.00000000	      0.00000000	     29.70998208	    -16.29649647	      7.27901539	     88.46877480	     55.13021414	      0.00000000	      0.00000000
      7.51500000	    -23.73634930	     -5.82892015	     -8.48410437	      0.41656589	      1.20905484	     -0.25943249	      0.00000000	      0.50000000	      0.00000000	      0.25000000	     61.03707649	      6.83979236	      4.30977120	     83.13556865	      1.45098940	     18.95602955	     -5.00786475	      0.00000000	      0.00000000	     22.89131115	    -10.35733671	     -4.36512764	     40.93002581	      0.71436371	    -16.63179105	    -10.27073608	      0.00000000	      0.00000000	    -64.79119799	      5.44714730	      8.22131486	     39.39817277	    -11.99136335	     17.70555688	     95.48722039	     52.18520325	      0.00000000	      0.00000000	     30.21655195	    -15.99980731	      7.65757119	     88.36454536	     55.17045037	      0.00000000	      0.00000000
      7.52000000	    -23.84602198	     -4.95454530	     -9.00182949	      0.41604464	      1.21006633	     -0.25884708	      0.00000000	      0.50000000	      0.00000000	      0.25000000	     60.14192435	      6.76018958	      5.09467796	     80.54743158	      1.40581789	     19.03072318	     -5.84389596	      0.00000000	      0.00000000	     24.22318271	     -9.60492897	     -4.15728668	     43.55994986	      0.76026455	    -17.44624549	    -10.90395066	      0.00000000	      0.00000000	    -64.74610553	      4.23279591	      9.83527670	     37.79168310	    -13.65807974	     15.53977082	     97.91161400	     52.33337298	      0.00000000	      0.00000000	     32.35618130	    -14.67680070	     10.19352518	     86.36646430	     55.22756124	      0.00000000	      0.00000000
      7.52500000	    -23.60565424	     -4.13016577	     -9.35828165	      0.41593683	      1.21129777	     -0.25852447	      0.00000000	      0.50000000	      0.00000000	      0.25000000	     58.93548683	      6.46773985	      5.80748870	     78.09621596	      1.36303610	     18.80428486	     -6.31332263	      0.00000000	      0.00000000	     25.15955890	     -8.83497365	     -4.06031540	     46.05956872	      0.80389113	    -18.28041545	    -11.51584022	      0.00000000	      0.00000000	    -65.24505199	      3.67484633	      9.32013948	     38.17790539	    -13.51895065	     15.60353902	     98.22684565	     52.38261030	      0.00000000	      0.00000000	     32.62678158	    -14.81198103	     10.16053924	     86.32686923	     55.22304963	      0.00000000	      0.00000000
